<svg xmlns="http://www.w3.org/2000/svg" enable-background="new 0 0 64 64" viewBox="0 0 64 64" id="burger">
  <path d="M3.69 45.04c0 3.93 3.2 7.12 7.13 7.12h42.36c3.93 0 7.13-3.19 7.13-7.12v-4.6H3.69V45.04zM60.62 29.55c.15 0 .31.03.46.04-.74-9.9-9.05-17.75-19.13-17.75H22.05c-10.07 0-18.39 7.86-19.13 17.75.15-.01.3-.04.45-.04H60.62zM45.36 19.33h2.42c.57 0 1.03.46 1.03 1.03s-.46 1.03-1.03 1.03h-2.42c-.57 0-1.03-.46-1.03-1.03S44.79 19.33 45.36 19.33zM40.65 15.19h2.41c.57 0 1.03.45 1.03 1.03 0 .57-.46 1.03-1.03 1.03h-2.41c-.58 0-1.03-.46-1.03-1.03C39.62 15.65 40.07 15.19 40.65 15.19zM40.65 23.47h2.41c.57 0 1.03.46 1.03 1.03 0 .58-.46 1.03-1.03 1.03h-2.41c-.58 0-1.03-.45-1.03-1.03C39.62 23.94 40.07 23.47 40.65 23.47zM35.65 19.33h2.41c.57 0 1.03.46 1.03 1.03s-.46 1.03-1.03 1.03h-2.41c-.58 0-1.03-.46-1.03-1.03S35.08 19.33 35.65 19.33zM30.79 15.19h2.42c.57 0 1.03.45 1.03 1.03 0 .57-.46 1.03-1.03 1.03h-2.42c-.57 0-1.03-.46-1.03-1.03C29.76 15.65 30.22 15.19 30.79 15.19zM30.79 23.47h2.42c.57 0 1.03.46 1.03 1.03 0 .58-.46 1.03-1.03 1.03h-2.42c-.57 0-1.03-.45-1.03-1.03C29.76 23.94 30.22 23.47 30.79 23.47zM25.94 19.33h2.41c.58 0 1.03.46 1.03 1.03s-.45 1.03-1.03 1.03h-2.41c-.57 0-1.03-.46-1.03-1.03S25.37 19.33 25.94 19.33zM20.94 15.19h2.41c.58 0 1.03.45 1.03 1.03 0 .57-.45 1.03-1.03 1.03h-2.41c-.57 0-1.03-.46-1.03-1.03C19.91 15.65 20.38 15.19 20.94 15.19zM20.94 23.47h2.41c.58 0 1.03.46 1.03 1.03 0 .58-.45 1.03-1.03 1.03h-2.41c-.57 0-1.03-.45-1.03-1.03C19.91 23.94 20.38 23.47 20.94 23.47zM16.23 19.33h2.42c.57 0 1.03.46 1.03 1.03s-.46 1.03-1.03 1.03h-2.42c-.57 0-1.03-.46-1.03-1.03S15.66 19.33 16.23 19.33zM63.38 33.05c-.39-.55-.95-.97-1.59-1.22-.37-.13-.75-.22-1.17-.22H3.38C1.52 31.62 0 33.13 0 34.99c0 1.86 1.52 3.38 3.38 3.38h57.25c1.86 0 3.38-1.52 3.38-3.38C64 34.27 63.77 33.6 63.38 33.05z" fill="#808080"/>
</svg>
